<?xml version="1.0" encoding="UTF-8"?>
<svg id="Layer_1" data-name="Layer 1" xmlns="http://www.w3.org/2000/svg" viewBox="0 0 4238.04 580.14">
  <defs>
    <style>
      .cls-1 {
        fill: #fff;
        opacity: .7;
      }

      .cls-2 {
        fill: #1b5d5d;
      }
    </style>
  </defs>
  <polygon class="cls-2" points="2922.04 570.26 2921.29 394.43 2835.16 500.54 2748.88 394.23 2748.38 569.5 2690.69 569.56 2690.75 301.45 2742.47 300.87 2835.24 416.21 2927.29 301.41 2979.62 301.38 2979.68 569.55 2922.04 570.26"/>
  <polygon class="cls-2" points="3922.47 569.76 3870.2 569.78 3739.34 402.7 3739.33 570.06 3681.62 570.06 3681.6 301.19 3733.59 301.09 3864 467.11 3864.78 301.3 3922.41 301.29 3922.47 569.76"/>
  <path class="cls-2" d="M1640.28,561.05c-41.78,19.91-88.54,19.4-129.1.63-50.33-23.31-81.76-70.7-82.44-124.29-.7-54.97,30.54-103.45,81.51-127.59,40.5-19.18,87.45-19.43,128.15-.73,50.21,23.07,81.92,70.04,82.99,123.34s-29.18,103.91-81.11,128.64ZM1560.9,350.54c-49.79,8.18-79.33,54.14-70.77,101.25,8.3,45.68,52.3,76.14,98.36,69s79.36-51.24,72.07-98.54c-7.12-46.18-50.07-79.85-99.65-71.71Z"/>
  <path class="cls-2" d="M1108.69,570.59l-48.92-89.02-53.48.06-.37,88.45-57.66-.1v-268.83s127,.5,127,.5c51.37.2,88.52,40.35,86.32,90.72.67,33.03-14.68,62.71-45.66,77.68l55.34,99.42-62.57,1.12ZM1073.63,426.66c20.19-1.7,29.45-21.57,28.65-37.5-.8-15.91-11.91-33.39-30.24-33.62l-65.84-.82-.07,73.06c23.08.04,44.3.84,67.5-1.12Z"/>
  <path class="cls-2" d="M4180.34,468.67l-49.86-.75.2-45.86,107.36.16-.12,101.99c-46.01,50.53-119.64,65.69-181,37.57-42.97-19.69-72.2-57.63-80.01-99.55-9.3-49.91,7.32-97.55,44.08-129.55,63.74-55.49,159.34-48.9,213.04,16.44l-37.99,38c-13.72-14.59-27.03-26.01-45.1-32.56-34.45-12.49-72.19-2.92-96.07,24.69-22.94,26.53-27.86,65.85-9.61,98.93,26.46,47.95,93.19,57.68,134.97,23.22l.11-32.74Z"/>
  <polygon class="cls-2" points="2024.24 458.31 1912.78 458.6 1912.55 516.12 2058.81 516.26 2058.78 570.04 1854.66 570.12 1854.65 301.08 2054.79 301.06 2054.9 354.6 1912.48 354.85 1912.71 406.67 2023.97 406.81 2024.24 458.31"/>
  <path class="cls-2" d="M827.79,508.88l-104.22-.6-23.36,61.62-61.56.09,103.71-268.53,65.77-.44,103.83,268.78-61.46.39-22.7-61.32ZM808.13,456.51l-32.68-89.03-32.62,89.23,65.3-.2Z"/>
  <path class="cls-2" d="M3206.11,508.88l-104.22-.6-23.36,61.62-61.56.09,103.71-268.53,65.77-.44,103.83,268.78-61.46.39-22.7-61.32ZM3186.45,456.51l-32.68-89.03-32.62,89.23,65.3-.2Z"/>
  <path class="cls-2" d="M2238.8,565.44c-53.53,21.56-113.82,8.6-154.76-31.4l38.58-38.56c24.61,26.05,59.81,35.65,91.8,22.93,9.89-3.93,15.47-15.38,15.86-24.21.47-10.67-7.36-20.25-18.43-24.42l-52.52-19.79c-21.74-8.19-43.44-19.69-55.02-40.72-20.23-36.74-4.19-82.86,33.92-101.22,48.35-23.29,106.26-14.52,145.92,23.34l-37.97,38.64c-21.42-20.58-49.71-29.8-77.54-17.68-8.64,3.76-13.72,14.21-13.28,23.21,1.77,36.34,99.31,29.85,126.66,83.69,20.59,40.51.49,88.59-43.22,106.2Z"/>
  <polygon class="cls-2" points="2444.21 569.92 2386.4 569.59 2386.24 354.83 2309.34 354.57 2309.49 301.08 2520.8 301.03 2521.35 354.52 2444.26 354.83 2444.21 569.92"/>
  <polygon class="cls-2" points="3434.39 569.85 3376.69 569.94 3376.57 354.79 3299.84 354.65 3299.59 301.09 3511.27 301.05 3511.46 354.51 3434.45 354.97 3434.39 569.85"/>
  <polygon class="cls-2" points="1402.88 516.25 1403.01 570.04 1219.99 570.13 1220.02 301.48 1277.78 301.32 1277.81 516.04 1402.88 516.25"/>
  <path class="cls-2" d="M1365.04,4.85c6.8-3,15.38-2.79,23.33-1.14l-65.69,199.74-22.07.45-53.4-167.98-53.23,167.42c-7.41.74-14.75.76-22.24.13L1106.04,3.67c8.3-1.16,15.77-1.19,23,.11l53.16,167.34L1236.64,3.89c7.16-1.75,14.49-1.52,21.37.68l54.21,166.54,52.83-166.25Z"/>
  <polygon class="cls-2" points="3612.24 569.77 3554.43 570.07 3554.43 301.44 3612.2 301.35 3612.24 569.77"/>
  <polygon class="cls-2" points="2621.24 569.84 2563.44 569.92 2563.43 301.46 2621.19 301.32 2621.24 569.84"/>
  <path class="cls-2" d="M2471.17,96.45c24.98,13.28,36.43,37.24,30.84,62.98-5.24,24.16-26.58,44.03-53.85,44.25l-89.17.72V2.64s85.11.56,85.11.56c22.61.15,40.99,17.45,46.65,35.86,6.71,21.85.34,43.39-19.58,57.39ZM2440.4,87.05c21.68-.11,32.66-17.82,31.24-35.6-1.45-18.17-15.88-29.04-35.24-28.94l-55.68.27.24,64.58,59.45-.31ZM2481.66,144.04c-1.65-22.53-18.83-37.72-39.91-37.69l-61.13.11.17,77.72,66.11-.58c20.7-.18,36.31-18.36,34.76-39.55Z"/>
  <path class="cls-2" d="M2220.06,97.32c3.67,58.88-43.62,105.89-99.74,106.41l-68.62.63V2.71s67.35.25,67.35.25c51.92.19,97.63,40.01,101.02,94.35ZM2127.92,182.72c42.63-5.05,71.42-40.82,71-80.17-.43-39.9-30.42-74.08-71.78-78.73-18.05-2.03-35.99-1.34-53.77-.63l.07,160.72c19.32.03,35.86,1.01,54.49-1.2Z"/>
  <path class="cls-2" d="M941.27,1.87c59.09-11.02,112.3,27.89,121.82,84.77,9.21,55.07-27.46,108.59-84,118.61-55.28,9.8-109.51-25.82-120.23-82.13-10.41-54.68,23.73-110.31,82.41-121.25ZM1042.61,96.53c-3.6-46.96-41.94-78.83-86.74-76.46-43.74,2.32-77.51,38.18-77.36,83.48.15,48.73,38.65,85.75,87.12,83.13,45.39-2.44,80.75-41.09,76.99-90.15Z"/>
  <path class="cls-2" d="M1766.55,204.08l-44.53-80.42-57.65-.25-.33,79.92-21.55.56V2.69s78.62-.3,78.62-.3c32.2-.12,58.35,19.07,63.41,50.45,4.65,28.81-10.57,57.11-40.87,67.79l46.93,82.84-24.04.6ZM1763.83,61.52c-.64-22.29-16.17-38.68-37.78-38.74l-61.93-.16.08,80.77,64.47-.51c21.93-.17,35.78-19.54,35.16-41.36Z"/>
  <path class="cls-2" d="M1557.68,108.91l-93.56.17-.27,74.86,118.64.13c1.06,5.83,1.27,12.38.88,20.19l-141.11.1V2.6s135.41-.16,135.41-.16c4.01,4.68,4.1,12.09,1.68,20.04l-115.27.23-.06,66.14,92.66.08,1,19.98Z"/>
  <path class="cls-2" d="M1967.46,109.05l-93.35-.03-.18,74.96,118.58.1c1.11,6.53,1.21,13.63.04,20.24h-140.3s0-201.71,0-201.71l136.12-.17c2.78,4.81,3.01,12.44,1.27,20.02l-115.5.21-.24,66.13,92.97.15.59,20.1Z"/>
  <path class="cls-2" d="M688.8,129.47l-.28,74.69-21.55-.3.02-201.24,78.07.11c36.75.05,63.61,29.2,63.36,63.7-.25,34.69-27.56,62.49-64.02,62.71l-55.6.33ZM786.88,63.94c-.87-24.62-18.52-41.26-41.88-41.24l-56.33.06v86.26s58.98-.29,58.98-.29c24.06-.12,40.1-20.32,39.23-44.79Z"/>
  <path class="cls-2" d="M2711.58,4.85l-73.34,128.1-.53,71.24-21.25-.15-.51-70.78-73.78-129c6.93-1.75,15.12-1.93,23.74-.91l61.19,107.97,60.7-107.43c6.65-2.03,15.73-1.93,23.77.95Z"/>
  <circle class="cls-2" cx="284.96" cy="295.18" r="284.96"/>
  <path class="cls-1" d="M284.94,189.92c2.53,2.03,5.11,3.59,8.09,5.32l172.72,100.33.02,46.16c-1.96,0-3.39-.44-5.16-1.62l-175.6-101.83-.04,49.42c.66,1.95,3.52,3.58,5.31,4.67l175.47,101.96.02,46.17c-2.14-.04-3.69-.58-5.62-1.89l-174.51-101.12c-3.36,1.59-6.4,3.07-9.53,4.89l-38.1,22.12-38.62,22.37-36.74,21.3-17.5,10.12-40.23,23-.04-244.77,20.06-11.87,22.18-12.69,22.04-12.85,11.57-6.59,36.68-21.3,22.58-13.09,36.81-21.22c3.15-1.81,5.78-4.03,9.54-4.38l65.37,37.94,40.46,23.48,40.48,23.39,33.11,19.27v46.3c-1.08.06-2.79-.06-3.82-.66l-176.67-102.45"/>
</svg>