<?xml version="1.0" encoding="UTF-8"?>
<svg id="Layer_1" data-name="Layer 1" xmlns="http://www.w3.org/2000/svg" viewBox="0 0 1494.47 1494.47">
  <defs>
    <style>
      .cls-1 {
        fill: #fff;
      }

      .cls-2 {
        fill: #1b5d5d;
      }
    </style>
  </defs>
  <circle class="cls-2" cx="747.23" cy="747.23" r="747.23"/>
  <g>
    <path class="cls-1" d="M1077.9,1077.06c-35.54,28.86-86.83,31.02-124.7,5.42s-54.37-75.92-35.81-119.42c14.57-34.15,47.64-57.1,84.82-60.41,28.37-2.53,56.01,6.08,77.21,23.98,47.04,39.72,46.48,111.45-1.52,150.42ZM1038.18,1063.3c25.97-10.33,41.76-35.07,41.54-62.61-.21-25.74-14.29-48.91-37.63-59.93-20.08-9.47-43.37-9.1-62.89,1.33-21.21,11.33-33.85,32.52-34.8,56.47-1.02,25.73,11.86,49.42,34.64,61.6,18.17,9.71,39.58,10.92,59.14,3.14Z"/>
    <path class="cls-1" d="M745.5,1096.26l-39.91.06-37.51-67.33-39.98.18-.02,67.2-34.84-.09v-189.62s84.71.05,84.71.05c11.22,0,21.52,2.95,31.38,7.61,11.58,6.19,20.61,15.14,26.21,27.03,6,13.7,7.25,28.56,3.72,43.12-4.88,18.41-18.04,32.76-36.73,39.09l42.98,72.71ZM699.26,988.74c7.78-10.03,9.44-23.03,3.72-34.2-5.1-9.97-15.75-16.81-27.91-16.86l-46.99-.17.02,62.31,46.73-.14c9.44-.03,17.96-3.89,24.43-10.94Z"/>
    <path class="cls-1" d="M517.52,1059.64l-87.38-.04-15.2,36.75-36.65-.16,78.93-189.61,33.07-.07,78.92,189.59-36.62.26-15.06-36.72ZM505.61,1030.64l-29-70.57c-1.17-2.85-1.85-5.24-2.82-8.47l-1.31,4.32-30.56,74.75,63.68-.04Z"/>
    <polygon class="cls-1" points="894.7 1065.14 894.72 1096.36 774.1 1096.32 774.1 906.69 808.92 906.62 808.92 1065.09 894.7 1065.14"/>
    <path class="cls-1" d="M716.61,1196.5l-.22-50.4-24.84,32.58-24.93-32.79-.11,50.54h-6.69s0-61.86,0-61.86c1.62-.43,4.07-.48,6.04-.16l25.71,33.6,25.53-33.42c1.75-.49,4.24-.49,6.21-.18v61.98s-6.7.11-6.7.11Z"/>
    <path class="cls-1" d="M1020.25,1195.85c-1.37,1.06-4.55,1.09-6.16.25l-37.88-49.58-.22,49.99h-6.67s0-61.93,0-61.93c1.42-.44,4-.53,5.92-.31l38.2,49.98.16-50.1,6.63.07.02,61.63Z"/>
    <path class="cls-1" d="M1109.61,1170.8l-14.29-.11-.03-6.21h20.89s-.16,20.02-.16,20.02c-2.44,3.88-6.93,6.98-10.97,9.13-16.56,8.83-36.48,1.88-44.35-14.75-7.71-16.29-.25-36.11,17-43.23,13.52-5.58,28.63-1.2,37.46,10.43-1.48,1.47-2.71,2.56-4.43,3.92-9.68-12.83-28.47-14.29-39.52-2.34-8.98,9.71-9.09,25.12-.33,35.06,10.11,11.47,28.12,11.15,38.5.36l.23-12.27Z"/>
    <polygon class="cls-1" points="422.23 1167.15 393.35 1167.17 393.3 1190.32 430.2 1190.36 430.22 1196.6 386.61 1196.6 386.61 1134.14 429.41 1134.14 429.38 1140.36 393.38 1140.37 393.3 1160.88 422.29 1160.92 422.23 1167.15"/>
    <path class="cls-1" d="M800.87,1179.21l-29.45-.04-7.21,17.43-7.01-.26,25.66-61.98,6.42-.19,25.76,62.2-7,.29-7.16-17.45ZM798.03,1172.73l-11.99-28.93-11.96,29.03,23.96-.1Z"/>
    <path class="cls-1" d="M501.32,1187.54c-6.15,13.44-31,12.75-40.03.67l3.96-4.45c6.6,7.33,17.36,9.76,26.1,5.21,3.87-2.01,5.33-6.43,5-10.42-.28-3.47-3.37-6.82-7.37-8.18l-15.21-5.18c-6.01-2.05-10.37-6.84-11.04-12.39-.77-6.37,1.6-12.4,7.12-15.89,9.84-6.23,22.88-4.48,30.92,4.2l-4.33,4.44c-6.3-6.53-15.87-8.19-23.16-3.21-3,2.05-4.25,5.64-3.99,9.05.9,11.55,24,8.56,31.64,20,3.15,4.71,2.78,10.89.38,16.14Z"/>
    <path class="cls-1" d="M867.82,1196.32c-2.35.23-4.44.23-6.71.06l-.02-55.97-19.54-.09.04-6.19,45.83.03-.03,6.15-19.58.12v55.9Z"/>
    <polygon class="cls-1" points="558.32 1196.39 551.64 1196.51 551.63 1140.41 532.14 1140.34 532.05 1134.15 577.93 1134.13 577.93 1140.29 558.32 1140.44 558.32 1196.39"/>
    <polygon class="cls-1" points="618.57 1196.34 611.88 1196.48 611.88 1134.24 618.57 1134.24 618.57 1196.34"/>
    <path class="cls-1" d="M927.87,1195.98c-1.86.68-4.27.69-6.67.54v-62.34s6.65.03,6.65.03l.03,61.77Z"/>
  </g>
  <path class="cls-1" d="M746.44,366.08c5.08,4.08,10.28,7.23,16.27,10.7l347.21,201.69.05,92.78c-3.94,0-6.82-.88-10.37-3.26l-353.01-204.71-.08,99.35c1.32,3.92,7.07,7.19,10.67,9.4l352.74,204.96.05,92.81c-4.31-.07-7.42-1.17-11.29-3.8l-350.8-203.27c-6.76,3.2-12.86,6.17-19.15,9.82l-76.58,44.47-77.64,44.96-73.86,42.82-35.17,20.35-80.87,46.23-.09-492.05,40.33-23.86,44.58-25.5,44.31-25.83,23.25-13.25,73.74-42.83,45.39-26.31,74-42.65c6.33-3.65,11.61-8.11,19.17-8.8l131.41,76.27,81.34,47.21,81.37,47.03,66.56,38.74-.02,93.07c-2.15.12-5.59-.13-7.66-1.33l-355.16-205.95"/>
</svg>