<?xml version="1.0" encoding="UTF-8"?>
<svg id="Layer_1" data-name="Layer 1" xmlns="http://www.w3.org/2000/svg" viewBox="0 0 982.63 949.62">
  <defs>
    <style>
      .cls-1 {
        fill: #1b5d5d;
      }
    </style>
  </defs>
  <path class="cls-1" d="M490.24,265.19c6.88,5.53,13.93,9.79,22.03,14.49l470.29,273.19.07,125.68c-5.33,0-9.24-1.19-14.04-4.42l-478.15-277.28-.11,134.56c1.78,5.31,9.58,9.74,14.46,12.73l477.78,277.62.06,125.71c-5.83-.1-10.05-1.59-15.29-5.14l-475.16-275.33c-9.15,4.34-17.42,8.35-25.94,13.3l-103.73,60.24-105.16,60.9-100.05,57.99-47.64,27.57L.12,949.62l-.12-666.48,54.63-32.32,60.39-34.55,60.02-34.98,31.49-17.95,99.88-58.01,61.48-35.63,100.24-57.77c8.57-4.94,15.73-10.98,25.97-11.92l178,103.31,110.17,63.94,110.22,63.7,90.15,52.48-.03,126.06c-2.91.16-7.57-.17-10.37-1.8L491.16,128.74"/>
</svg>