<?xml version="1.0" encoding="UTF-8"?>
<svg id="Layer_1" data-name="Layer 1" xmlns="http://www.w3.org/2000/svg" viewBox="0 0 16 16">
  <path d="M7.98,4.16c.11.09.22.15.35.23l7.38,4.29v1.97c-.08,0-.14-.02-.22-.07l-7.5-4.35v2.11c.03.08.15.15.22.2l7.5,4.36v1.97c-.09,0-.16-.02-.24-.08l-7.45-4.32c-.14.07-.27.13-.41.21l-1.63.95-1.65.96-1.57.91-.75.43-1.72.98V4.44s.86-.51.86-.51l.95-.54.94-.55.49-.28,1.57-.91.96-.56,1.57-.91c.13-.08.25-.17.41-.19l2.79,1.62,1.73,1,1.73,1,1.41.82v1.98s-.12,0-.16-.03L8,2.02"/>
</svg>