<?xml version="1.0" encoding="UTF-8"?>
<svg id="Layer_1" data-name="Layer 1" xmlns="http://www.w3.org/2000/svg" viewBox="0 0 1118.57 1080">
  <defs>
    <style>
      .cls-1 {
        fill: #1b5d5d;
      }
    </style>
  </defs>
  <path class="cls-1" d="M0,1080V0h1118.57v1080H0ZM557.54,240.52l390.5,226.45c2.27,1.32,6.06,1.59,8.42,1.46l.03-102.33-73.18-42.6-89.47-51.71-89.43-51.91-144.49-83.86c-8.31.76-14.12,5.66-21.08,9.67l-81.37,46.9-49.91,28.93-81.08,47.09-25.56,14.57-48.72,28.4-49.02,28.04-44.35,26.24.1,541.01,88.92-50.83,38.67-22.38,81.21-47.08,85.36-49.44,84.2-48.9c6.92-4.02,13.63-7.28,21.06-10.8l385.71,223.5c4.25,2.88,7.68,4.1,12.41,4.18l-.05-102.04-387.84-225.36c-3.96-2.43-10.29-6.02-11.73-10.33l.09-109.23,388.13,225.08c3.9,2.62,7.07,3.58,11.4,3.59l-.05-102.02-381.76-221.76c-6.58-3.82-12.3-7.28-17.88-11.77"/>
</svg>