<?xml version="1.0" encoding="UTF-8"?>
<svg id="Layer_1" data-name="Layer 1" xmlns="http://www.w3.org/2000/svg" viewBox="0 0 2676.69 751.67">
  <defs>
    <style>
      .cls-1 {
        fill: #fff;
      }
    </style>
  </defs>
  <g>
    <path d="M2622.75,659.36c-99.28,121.48-293.79,123.46-395.94,3.57-81.39-95.53-74.39-237.36,15.19-324.8,95.25-92.98,250.42-96.48,350.26-11.38,99.12,84.49,113.11,231.51,30.48,332.61ZM2573.09,517c2.52-47.78-16.75-91.42-49.67-120.44-35.68-31.46-82.18-43.72-128.75-34.89-78.53,14.88-129.43,87.29-120.34,164.6,9.06,77.09,75.42,134.44,153.37,132.2,76.47-2.2,141.17-61.57,145.39-141.47Z"/>
    <path d="M1725.8,741.01l-109.44.75-83.66-153.51-92.77.32-.18,153.15-100.21-.05-.02-465.91,214.9.13c30.43.02,58.14,8.67,83.98,22.37,32.14,19.14,54.11,47.74,64.37,83.77,19.45,71.72-.74,153.3-73.11,186.42l96.12,172.57ZM1605.91,431.97c.96-36.45-25.93-62.26-60.52-63.07l-105.55.18.11,126.15,107.74-.42c33.94-.13,59.42-28.48,58.23-62.84Z"/>
    <path d="M1129.63,635.32l-180.11-.23-40.28,106.72-106.38-.32,179.73-465.6,113.6-.14,179.76,465.48-106.56.61-39.78-106.51ZM1095.88,544.91l-56.43-154.8-56.62,155.12,113.06-.32Z"/>
    <polygon points="2126.59 648.43 2126.79 741.7 1809.56 741.7 1809.58 275.83 1909.9 275.78 1909.87 648.36 2126.59 648.43"/>
    <path d="M1471.8,5.72c6.05-2.69,13.73-2.49,20.83-1.01l-58.69,178.66-19.72.4-47.7-150.25-47.56,149.75c-6.62.66-13.17.68-19.87.12l-58.68-178.72c7.42-1.04,14.09-1.07,20.55.1l47.49,149.63,48.58-149.35c6.08-1.94,13.27-1.62,19.12.43l48.43,148.94,47.2-148.71Z"/>
    <path d="M2459.94,87.65c22.31,11.88,32.54,33.31,27.55,56.33-4.68,21.61-23.75,39.38-48.11,39.58l-79.66.64V3.74s76.03.5,76.03.5c20.19.13,36.62,15.61,41.67,32.08,6,19.54.31,38.81-17.49,51.33ZM2432.45,79.24c19.37-.1,29.18-15.94,27.91-31.84s-14.19-25.97-31.48-25.89l-49.74.24.21,57.77,53.1-.28ZM2469.31,130.22c-1.48-20.15-16.83-33.74-35.65-33.71l-54.61.1.16,69.51,59.06-.52c18.5-.16,32.44-16.43,31.05-35.38Z"/>
    <path d="M2236.18,88.49c3.23,51.81-37.97,92.15-87.37,94.98-21.36,1.22-41.36.63-63.03.45V3.91s59.53.06,59.53.06c46.72.04,87.82,35.57,90.87,84.53ZM2155.52,164.57c37.38-5.25,62.03-36.83,61.77-71.19s-26.26-65.64-62.7-70.47c-16.67-2.21-33.33-1.49-49.48-.58l.05,143.39c17.6.21,33.19,1.26,50.37-1.15Z"/>
    <path d="M1093.23,3.05c52.79-9.86,100.32,24.94,108.82,75.82,8.23,49.26-24.53,97.13-75.04,106.09-49.38,8.77-97.83-23.1-107.41-73.46s21.2-98.66,73.62-108.45ZM1183.75,87.72c-3.22-42-37.47-70.51-77.49-68.39-39.07,2.07-69.24,34.15-69.11,74.67.14,43.59,34.53,76.69,77.83,74.36,40.55-2.19,72.14-36.76,68.78-80.64Z"/>
    <path d="M1830.47,183.92l-39.78-71.93-51.5-.23-.29,71.48-19.25.5V3.79s70.23-.27,70.23-.27c28.76-.11,52.12,17.05,56.65,45.13,4.15,25.77-9.44,51.08-36.51,60.64l41.93,74.1-21.47.54ZM1828.05,56.41c-.57-19.94-14.44-34.6-33.75-34.65l-55.33-.14.07,72.24,57.6-.46c19.59-.16,31.97-17.48,31.41-36.99Z"/>
    <path d="M1644.58,98.88l-83.85.04.04,66.99,106.78.17.04,18.05h-126.18s-.01-180.48-.01-180.48l122.81-.07c.67,4.98.9,10.59.88,17.85l-104.29.31-.11,59.08,83.4.12.49,17.93Z"/>
    <path d="M2009.96,98.92l-83.39-.02-.16,67.05,105.93.09c1,5.84,1.08,12.2.04,18.11h-125.35s.05-180.43.05-180.43l121.12-.1c3.34,3.57,3.33,11.58,1.5,17.86l-103.09.2-.22,59.15,83.05.13.53,17.98Z"/>
    <path d="M867.69,117.19l-.25,66.8-19.25-.27.02-180,69.75.09c32.83.04,56.82,26.12,56.6,56.98-.22,31.03-24.62,55.89-57.19,56.09l-49.67.3ZM955.31,58.57c-.78-22.02-16.54-36.91-37.42-36.89l-50.32.05v77.16s52.69-.26,52.69-.26c21.5-.1,35.82-18.17,35.05-40.06Z"/>
    <path d="M2675.62,5.01l-65.96,115.5-.45,63.36-18.99.07-.43-63.58-65.89-115.16c6.9-2,14.55-1.88,21.72-.13l54.12,95.94,54.07-95.72c5.43-2.05,12.97-2.12,21.82-.3Z"/>
  </g>
  <circle cx="368.9" cy="368.9" r="368.9"/>
  <path class="cls-1" d="M368.87,232.63c3.27,2.63,6.62,4.65,10.47,6.89l223.6,129.88.03,59.75c-2.53,0-4.39-.57-6.68-2.1l-227.33-131.83-.05,63.98c.85,2.53,4.55,4.63,6.87,6.05l227.15,131.99.03,59.77c-2.77-.05-4.78-.76-7.27-2.45l-225.91-130.9c-4.35,2.06-8.28,3.97-12.33,6.32l-49.32,28.64-50,28.96-47.57,27.57-22.65,13.11-52.08,29.77-.06-316.87,25.97-15.37,28.71-16.42,28.54-16.63,14.97-8.53,47.49-27.58,29.23-16.94,47.66-27.47c4.08-2.35,7.48-5.22,12.35-5.66l84.63,49.12,52.38,30.4,52.4,30.29,42.86,24.95v59.93c-1.4.08-3.61-.08-4.95-.85l-228.72-132.63"/>
</svg>