<?xml version="1.0" encoding="UTF-8"?>
<svg id="Layer_1" data-name="Layer 1" xmlns="http://www.w3.org/2000/svg" viewBox="0 0 1947.15 779.13">
  <defs>
    <style>
      .cls-1 {
        fill: #fff;
      }
    </style>
  </defs>
  <path class="cls-1" d="M1846.12,461.36c-93.78,76.15-229.12,81.85-329.06,14.31-102.81-69.48-143.47-200.33-94.5-315.12,38.44-90.11,125.7-150.66,223.83-159.41,74.87-6.67,147.79,16.03,203.75,63.28,124.12,104.81,122.65,294.09-4.02,396.94ZM1741.32,425.07c68.54-27.25,110.2-92.55,109.6-165.2-.56-67.91-37.7-129.07-99.3-158.14-52.98-24.99-114.44-24-165.94,3.5-55.97,29.89-89.32,85.82-91.84,149.01-2.7,67.88,31.28,130.4,91.42,162.55,47.94,25.63,104.44,28.8,156.06,8.28Z"/>
  <path class="cls-1" d="M968.99,512.04l-105.31.15-98.99-177.66-105.5.48-.06,177.33-91.94-.24V11.72s223.53.12,223.53.12c29.6.02,56.78,7.79,82.79,20.07,30.55,16.33,54.38,39.95,69.17,71.33,15.84,36.15,19.14,75.37,9.81,113.78-12.87,48.58-47.6,86.45-96.92,103.14l113.42,191.87ZM846.99,228.33c20.53-26.46,24.9-60.78,9.82-90.25-13.45-26.3-41.57-44.37-73.64-44.49l-124-.45.05,164.43,123.31-.38c24.91-.08,47.4-10.25,64.46-28.86Z"/>
  <path class="cls-1" d="M367.41,415.4l-230.59-.11-40.1,96.98-96.72-.42L208.29,11.5l87.26-.19,208.24,500.28-96.64.69-39.74-96.89ZM335.98,338.87l-76.51-186.22c-3.09-7.53-4.89-13.81-7.44-22.34l-3.45,11.41-80.64,197.25,168.04-.11Z"/>
  <polygon class="cls-1" points="1362.72 429.91 1362.75 512.29 1044.47 512.18 1044.47 11.8 1136.36 11.61 1136.35 429.78 1362.72 429.91"/>
  <path class="cls-1" d="M892.76,776.53l-.57-132.98-65.54,85.98-65.78-86.53-.28,133.35h-17.65s-.02-163.24-.02-163.24c4.28-1.14,10.75-1.26,15.95-.43l67.83,88.67,67.36-88.18c4.62-1.31,11.18-1.3,16.38-.47v163.54s-17.68.29-17.68.29Z"/>
  <path class="cls-1" d="M1694,774.84c-3.61,2.79-12.01,2.87-16.26.67l-99.94-130.82-.57,131.91-17.6-.04-.02-163.37c3.75-1.17,10.55-1.41,15.61-.81l100.81,131.87.42-132.21,17.5.17.05,162.63Z"/>
  <path class="cls-1" d="M1929.81,708.74l-37.7-.29-.08-16.39,55.11.03-.43,52.78c-6.44,10.23-18.29,18.41-28.95,24.1-43.69,23.31-96.27,4.95-117.02-38.92-20.34-43-.67-95.28,44.85-114.08,35.66-14.73,75.54-3.18,98.86,27.52-3.92,3.89-7.15,6.76-11.7,10.36-25.55-33.85-75.12-37.71-104.29-6.19-23.69,25.61-23.98,66.28-.86,92.52,26.67,30.27,74.19,29.43,101.58.95l.61-32.39Z"/>
  <polygon class="cls-1" points="115.96 699.11 39.75 699.16 39.63 760.25 137.01 760.35 137.05 776.81 21.97 776.81 21.97 611.98 134.93 611.99 134.85 628.4 39.84 628.42 39.64 682.54 116.12 682.67 115.96 699.11"/>
  <path class="cls-1" d="M1115.1,730.91l-77.72-.12-19.04,46.01-18.5-.68,67.71-163.55,16.95-.51,67.97,164.12-18.48.77-18.89-46.04ZM1107.62,713.83l-31.65-76.35-31.57,76.61,63.21-.26Z"/>
  <path class="cls-1" d="M324.67,752.91c-16.22,35.45-81.79,33.64-105.63,1.77l10.45-11.73c17.42,19.36,45.82,25.74,68.88,13.75,10.21-5.3,14.06-16.96,13.2-27.5-.74-9.16-8.9-17.99-19.44-21.58l-40.13-13.67c-15.86-5.4-27.37-18.06-29.13-32.7-2.03-16.8,4.23-32.71,18.79-41.93,25.97-16.44,60.37-11.82,81.58,11.08l-11.43,11.72c-16.63-17.23-41.88-21.61-61.12-8.47-7.91,5.4-11.22,14.89-10.52,23.88,2.37,30.49,63.33,22.59,83.5,52.78,8.3,12.43,7.33,28.73.99,42.59Z"/>
  <path class="cls-1" d="M1291.76,776.06c-6.21.6-11.71.62-17.72.16l-.04-147.68-51.56-.24.11-16.35,120.94.07-.07,16.22-51.67.31v147.49Z"/>
  <polygon class="cls-1" points="475.07 776.26 457.45 776.56 457.43 628.55 406 628.34 405.76 612.03 526.82 611.96 526.82 628.21 475.09 628.61 475.07 776.26"/>
  <polygon class="cls-1" points="634.08 776.12 616.41 776.5 616.41 612.27 634.05 612.26 634.08 776.12"/>
  <path class="cls-1" d="M1450.24,775.18c-4.9,1.79-11.28,1.82-17.61,1.42v-164.5s17.54.09,17.54.09l.07,162.99Z"/>
</svg>