<?xml version="1.0" encoding="UTF-8"?>
<svg id="Layer_1" data-name="Layer 1" xmlns="http://www.w3.org/2000/svg" viewBox="0 0 1494.47 1494.47">
  <defs>
    <style>
      .cls-1 {
        fill: #fff;
        opacity: .7;
      }

      .cls-2 {
        fill: #1b5d5d;
      }
    </style>
  </defs>
  <circle class="cls-2" cx="747.23" cy="747.23" r="747.23"/>
  <path class="cls-1" d="M747.18,471.21c6.62,5.32,13.41,9.42,21.22,13.96l452.91,263.09.06,121.03c-5.13,0-8.9-1.15-13.52-4.26l-460.47-267.03-.11,129.59c1.72,5.12,9.22,9.38,13.92,12.26l460.12,267.36.06,121.06c-5.62-.1-9.68-1.53-14.73-4.95l-457.6-265.16c-8.81,4.18-16.78,8.05-24.98,12.81l-99.9,58.01-101.27,58.65-96.35,55.85-45.88,26.55-105.49,60.31-.12-641.85,52.61-31.13,58.16-33.27,57.8-33.69,30.33-17.29,96.19-55.87,59.21-34.32,96.53-55.64c8.25-4.76,15.14-10.57,25.01-11.47l171.42,99.5,106.1,61.58,106.14,61.35,86.82,50.54-.03,121.4c-2.8.15-7.29-.16-9.99-1.73l-463.28-268.65"/>
</svg>