<?xml version="1.0" encoding="UTF-8"?>
<svg id="Layer_1" data-name="Layer 1" xmlns="http://www.w3.org/2000/svg" viewBox="0 0 885.42 1232.54">
  <defs>
    <style>
      .cls-1 {
        fill: #fff;
      }
    </style>
  </defs>
  <g>
    <path class="cls-1" d="M839.48,1088.04c-42.65,34.63-104.19,37.22-149.63,6.51-46.75-31.59-65.24-91.09-42.97-143.29,17.48-40.98,57.16-68.51,101.78-72.49,34.04-3.03,67.21,7.29,92.65,28.78,56.44,47.66,55.77,133.73-1.83,180.5ZM791.83,1071.54c31.16-12.39,50.11-42.08,49.84-75.12-.25-30.88-17.14-58.69-45.16-71.91-24.09-11.37-52.04-10.91-75.46,1.59-25.45,13.59-40.62,39.03-41.76,67.76-1.23,30.87,14.23,59.3,41.57,73.92,21.8,11.66,47.49,13.1,70.97,3.76Z"/>
    <path class="cls-1" d="M440.63,1111.08l-47.89.07-45.01-80.79-47.98.22-.03,80.64-41.81-.11v-227.53s101.64.06,101.64.06c13.46,0,25.82,3.54,37.65,9.13,13.89,7.43,24.73,18.17,31.45,32.43,7.2,16.44,8.7,34.27,4.46,51.74-5.85,22.09-21.64,39.31-44.07,46.9l51.57,87.25ZM385.15,982.07c9.33-12.03,11.32-27.64,4.47-41.04-6.12-11.96-18.9-20.18-33.49-20.23l-56.39-.2.02,74.77,56.07-.17c11.33-.04,21.55-4.66,29.31-13.12Z"/>
    <path class="cls-1" d="M167.07,1067.14l-104.85-.05-18.24,44.1-43.98-.19,94.71-227.52,39.68-.08,94.69,227.49-43.95.31-18.07-44.06ZM152.78,1032.34l-34.79-84.68c-1.41-3.42-2.23-6.28-3.38-10.16l-1.57,5.19-36.67,89.7,76.41-.05Z"/>
    <polygon class="cls-1" points="619.67 1073.74 619.68 1111.2 474.95 1111.15 474.95 883.61 516.73 883.52 516.73 1073.68 619.67 1073.74"/>
    <path class="cls-1" d="M405.96,1231.36l-.26-60.47-29.8,39.1-29.91-39.35-.13,60.64h-8.03s0-74.23,0-74.23c1.94-.52,4.89-.57,7.25-.2l30.85,40.32,30.63-40.1c2.1-.59,5.08-.59,7.45-.21v74.37s-8.04.13-8.04.13Z"/>
    <path class="cls-1" d="M770.31,1230.59c-1.64,1.27-5.46,1.31-7.39.3l-45.45-59.49-.26,59.98-8-.02v-74.29c1.7-.53,4.79-.64,7.09-.37l45.84,59.97.19-60.12,7.96.08.02,73.95Z"/>
    <path class="cls-1" d="M877.54,1200.53l-17.14-.13-.03-7.45h25.06s-.19,24.02-.19,24.02c-2.93,4.65-8.32,8.37-13.16,10.96-19.87,10.6-43.78,2.25-53.21-17.7-9.25-19.55-.3-43.33,20.39-51.88,16.22-6.7,34.35-1.44,44.95,12.51-1.78,1.77-3.25,3.07-5.32,4.71-11.62-15.39-34.16-17.15-47.42-2.81-10.77,11.65-10.9,30.14-.39,42.07,12.13,13.76,33.74,13.38,46.19.43l.28-14.73Z"/>
    <polygon class="cls-1" points="52.73 1196.15 18.07 1196.17 18.02 1223.95 62.3 1223.99 62.32 1231.48 9.99 1231.48 9.99 1156.53 61.36 1156.53 61.32 1164 18.12 1164.01 18.03 1188.62 52.8 1188.67 52.73 1196.15"/>
    <path class="cls-1" d="M507.07,1210.61l-35.34-.05-8.66,20.92-8.41-.31,30.79-74.37,7.71-.23,30.91,74.63-8.4.35-8.59-20.94ZM503.67,1202.84l-14.39-34.72-14.35,34.84,28.75-.12Z"/>
    <path class="cls-1" d="M147.64,1220.61c-7.38,16.12-37.19,15.3-48.03.81l4.75-5.33c7.92,8.8,20.83,11.71,31.32,6.25,4.64-2.41,6.39-7.71,6-12.5-.34-4.16-4.05-8.18-8.84-9.81l-18.25-6.22c-7.21-2.46-12.45-8.21-13.25-14.87-.92-7.64,1.92-14.87,8.54-19.07,11.81-7.48,27.45-5.38,37.1,5.04l-5.2,5.33c-7.56-7.83-19.04-9.83-27.79-3.85-3.6,2.46-5.1,6.77-4.78,10.86,1.08,13.86,28.8,10.27,37.97,24,3.78,5.65,3.33,13.06.45,19.36Z"/>
    <path class="cls-1" d="M587.4,1231.14c-2.82.27-5.32.28-8.06.07l-.02-67.15-23.45-.11.05-7.43,55,.03-.03,7.38-23.49.14v67.07Z"/>
    <polygon class="cls-1" points="216.03 1231.23 208.01 1231.37 208 1164.06 184.62 1163.97 184.51 1156.55 239.56 1156.52 239.56 1163.91 216.04 1164.09 216.03 1231.23"/>
    <polygon class="cls-1" points="288.33 1231.17 280.3 1231.34 280.3 1156.66 288.32 1156.66 288.33 1231.17"/>
    <path class="cls-1" d="M659.47,1230.74c-2.23.81-5.13.83-8.01.65v-74.81s7.98.04,7.98.04l.03,74.12Z"/>
  </g>
  <path class="cls-1" d="M441.76,234.92c6.09,4.9,12.34,8.67,19.52,12.84l416.62,242.01.06,111.33c-4.72,0-8.19-1.06-12.44-3.92l-423.58-245.64-.1,119.21c1.58,4.71,8.48,8.63,12.81,11.28l423.25,245.94.06,111.36c-5.17-.09-8.91-1.41-13.55-4.56l-420.93-243.91c-8.11,3.84-15.43,7.4-22.98,11.78l-91.89,53.36-93.16,53.95-88.63,51.38-42.2,24.42-97.04,55.48-.11-590.42,48.4-28.64,53.5-30.6,53.17-30.99,27.9-15.9,88.48-51.39,54.46-31.57,88.8-51.18c7.59-4.38,13.93-9.73,23.01-10.56l157.68,91.52,97.6,56.65,97.64,56.43,79.86,46.49-.03,111.68c-2.57.14-6.71-.15-9.19-1.59L442.57,114.05"/>
</svg>